<mxfile host="65bd71144e">
    <diagram id="HIP3nbAZw_EuaXWnEj3U" name="Page-1">
        <mxGraphModel dx="835" dy="570" grid="1" gridSize="10" guides="1" tooltips="1" connect="1" arrows="1" fold="1" page="1" pageScale="1" pageWidth="850" pageHeight="1100" math="0" shadow="0">
            <root>
                <mxCell id="0"/>
                <mxCell id="1" parent="0"/>
                <mxCell id="7" value="http://ics2o.mths.ca" style="swimlane;whiteSpace=wrap;html=1;" vertex="1" parent="1">
                    <mxGeometry x="30" y="20" width="760" height="490" as="geometry"/>
                </mxCell>
                <mxCell id="8" value="&lt;font style=&quot;font-size: 20px;&quot;&gt;Volume of a sphere in JS&lt;/font&gt;" style="rounded=0;whiteSpace=wrap;html=1;" vertex="1" parent="7">
                    <mxGeometry y="20" width="750" height="60" as="geometry"/>
                </mxCell>
                <mxCell id="10" value="&lt;h5 style=&quot;padding: 0px; line-height: 1; margin: 24px 0px 16px; text-align: start;&quot;&gt;&lt;font face=&quot;Roboto, Helvetica, Arial, sans-serif&quot;&gt;&lt;span style=&quot;font-size: 20px; font-weight: 500; letter-spacing: 0.4px;&quot;&gt;Type ?r= [your number] into the url to calculate the volume&lt;/span&gt;&lt;/font&gt;&lt;/h5&gt;&lt;h5 style=&quot;padding: 0px; font-size: 20px; font-weight: 500; line-height: 1; letter-spacing: 0.02em; font-family: Roboto, Helvetica, Arial, sans-serif; margin: 24px 0px 16px; text-align: start;&quot;&gt;Formula:&lt;/h5&gt;&lt;h5 style=&quot;padding: 0px; font-size: 20px; font-weight: 500; line-height: 1; letter-spacing: 0.02em; font-family: Roboto, Helvetica, Arial, sans-serif; margin: 24px 0px 16px; text-align: start;&quot;&gt;4 / 3 x π x radius&lt;/h5&gt;&lt;div style=&quot;font-family: Helvetica, Arial, sans-serif; font-size: 14px; text-align: start;&quot; id=&quot;dimension&quot;&gt;r = 2&lt;/div&gt;&lt;div style=&quot;font-family: Helvetica, Arial, sans-serif; font-size: 14px; text-align: start;&quot; id=&quot;output&quot;&gt;Volume: 33.51 cm³&lt;/div&gt;" style="text;html=1;align=center;verticalAlign=middle;resizable=0;points=[];autosize=1;strokeColor=none;fillColor=none;fontSize=20;" vertex="1" parent="7">
                    <mxGeometry x="15" y="100" width="570" height="200" as="geometry"/>
                </mxCell>
                <mxCell id="11" value="" style="shape=image;verticalLabelPosition=bottom;labelBackgroundColor=default;verticalAlign=top;aspect=fixed;imageAspect=0;image=data:image/png,iVBORw0KGgoAAAANSUhEUgAAAT4AAACfCAMAAABX0UX9AAAAkFBMVEX////+/v4AAAD7+/v39/fs7OzGxsbj4+Po6Oj4+Pjy8vLw8PBcXFzh4eHDw8PKysqoqKivr6+1tbXS0tKYmJiGhobb29tCQkItLS28vLyOjo5NTU2goKA2NjZLS0upqalVVVV2dnYdHR1paWl5eXmTk5Nubm4/Pz8XFxdjY2OCgoImJiZ4eHgODg4zMzMiIiKMM3FLAAAOMElEQVR4nO1diZqiMAxuU5BTEVEQRcUDHXWdef+327QFxWMUr11F/m93huFsf9IkTdNCyCVQSo+2KhRGRd9dqOi7CxV9d6Gi7y5U9N2Fir4XwKmXsN2i9209s9wvgrP03UTk0U3KjIq+ChUqVKhQoUKFChUqVKhQoUKFcmEvUpP9r1AEaZSLSvzv0rwd6Gn872K9MLBxpj95M2V7dIk9jIkGTMiJyO3uLrlrTmyV9wXkNBxnj+9ill73fb9e11RD/M0ErRlvd4TAy4ctdZThX0qtOR92YYt1MG03VHEio0XoO09k+UC33FmNFSfuJ5h2mq0Q0Rr15n3B5ayl4wlcBklh+k4RebksR1uvDCrrhtSYLRtp6ieOpuyfwnQvmuKhYVPLSeCTivNm9KWSwbwxwGRW45qOCQ24s7pMnOb1BgDLhkLoM5viu9HH7SpRWn2AeY1LHd0akuyEnUXxVhv4bpr30Xfm4jfjTjRcpK81gE2iCft69lRUju4AJpEidWDOk7nmoaWhT2o9L0CRUpC7M+ylKpKfEPbhu2XgDnZbHctDH6fA+gPQtrgU7jXZ41Nlm8aWTmYAti8d7H9a3NfBti8WAoxVQlNJuuB8iH/MnARtpJw70ux0T2TX/zixVQak5Bkr6NZkr4wU8Odkw2tDi/gx2Do18qR8Uq9D+iNaAGMzozLdvTvheEtIqboJmCARPMJyDfiTeh2CPQdQjjLyinTGOH2kAw63GsT7gSbJCeAH9TqECXDhxyPXqH9OH1Ghnxphqw8dmnkwjyvZy9MnDWgbhup1jUqYjjH40oIwA7eXCmWfRx9WOQHblJ7eFaWk1IM5l0Epf7QDU4Vd6b+8t98njQZNUsG54jpuKMgS9LQPTJl4CUuT7XRn0QL8fuho68XApYaRJrLHrlNbnHS0NqvMhRMqgPZgzq4Lwrw/fegsx8o2Al/sMiI6HEPQt/fh0sjYCnq3dt/eEbzpejAwDYMdv+ozW8gWIy1o591rLn5sCq70/y7c5XlV+ofgAmetoU4MtttXkD5qLr7UfOdO2A8zQFucb8Cl7nWgxCyF45vbVYw+SkbcUd6jj7dbbbM294bnSk0fibAFsry3VpQ+ZdJVGNvto2mTrnFn5mLjLQN9qPh8sK911YgUPh4rOPJ1eLC6B2FZlNt5MGYOUfHdEKljRIO+cvIIUxbcGyw/fyh8EUTkKjd3C0U36ZEOk2EEB8YfIH1YdxUWR3JyUWtxYWVEycbcDs+jBplBbav+Smt5sQoraBypqYv0IRrxqKv/Qh+KoAUByxI8Smt5KanD9FjxFaAP+ymaz9gv9AlzHmY3Lqn08RrMeIj4OsMhtZsfyxjBb+dY66FSAo5+h4jOo/BdW0nZ23VX53q2dE/8ygmsWw/8q0e3ub/MyHx0jhp8NeamX3LpowbYQvtf23gN6swS9Sx98tWUlz5esdZNvQM5Nk7Y2VOw6wt/Hhm1fzVg1eKJcoOAoNR6zQu9Cn7X6ZdVYv4o0aF3U04PUb5AOZcAI05C3yYsNX1N8E8fOe/3sTRWcD6mQomZBl5K6TZj8fuT09Jxnj5G1c3CSFOszl1BlhurtPRhlx86pw+clyrZ0SN7FJzYwrbdAoeUlD4sfYPX7oYLNYiLRKOkbi2p50x5cop1k+EYQ40YRZ5AF8OSRJWPgLUSlbv+Sh/mu0jVuQfwVn6LY/QO4JG+zp7rS/d+/d6sp7/Z6ywYs30CccErZ9AeK+WJbLTtDjG0yHasMUvXfM8L3ShKep3VaibxZwzfSdKO3NDx/bpuZeF6Kgd5aT4DHwXVJbfEsV8elNvFnGhkYQNqqF7YTMZ28P0Fp7A5+PM7iOe9ZsvRlSw0mnuEKmz7f6fvdAHuKRbl2Tx7iomqXqs3HUhWJoP+cpY0Ww3H8zXVNHanNdCaGoql1z2nFrrt1TRerOU138vVyNOM3CMo6dp3lvN04Y3IE/G2sHXgAuC+ms+75C2P65GmSupRpBHieITuj2RrdhAeDxMWLgGPlIq5B1z9WU40X3AKfuJV23Xq6vEImgzREyVI8wpyUCzNa0UdW0x16y7bDV2qQbx1P9hzrx/k9zESzEXgYhIdMECJtdApT5tz8Sx1rTRgMMBW5gfm3gMpdUOtf/tUALzO7oo3YnhJn8tbf+V6ai76nv7aH+GgIqnlYF8mXszywl7MZTFY1Uw+YEnGE4U8nj6ueEyRTKwe0kc7POlGWSB9lIRzMowIWfUJmUWHN1GX7dvbBZZ+YCN9TmcCMFi5vin2ytQe8VKyQbLdBfjT+Jko9GCEQ1DIWHYu08LOECmcNpC5NlhPGOvgI1E8GtGZ8ucxq1FDNMSLsjZcBFZJn9M3bhGukdtIn7cmTmzbdmwvYy+qzeaG6S7NO+hjkxkJA4C46R86cb/cVaQBNi9UTIBprSm24wg9F/UJloNrniUhJvaa+CM9+EJId6q1wGI2vkmAJl/51lEQGvMvjVLlx/N78aDdtte9+uxrljR0Yms3v0KkD5Z96LZ1Uli3M3QVA+OywywF13SHsP6zTf97JIRyU0hjLVKJs8YgfvX+oA388QR9HqeSuj18jZT08b2354Q0URTHaNCcoN+5vUNJCcMG1jTlzLVidzFIDxoF+hsknVdjhKgHtRsLeP7+aNNDMo2EXWJ6xNEWE9znHUKnPYUFI4NECVKK5dC4YE57SB829hGnj4c5DfMuj57BpJ6m4RW139SMCCtAX6oOKTFjlL7nuH3RkoLO68+ox5WaHYsXhcxY0o+KSewRo4ECQn9CQpYpfU1J333gjxUp8UXIyONCjHnvEYzrymc0Xg4VmjGRjTe/O5kTpqqqEjQV61vBSraxnUKdkKH7aPogYdeKBmXFCad8KOpZ9FESQy2lj6a2n9fF2cjh58WIhFORuh4MYYQWmVOYoL1pBqKF3/t0wiZfMAilv0KLmo8C/gbNfjAnhq+nSR/zeifKQhWhkVDsPdnTIFq7jb9JY4HnOi20Jy76g7V7Axn46O9pawKDxBedfSZe384pIwW36C6NReq7bCqr1kTnr52g4/KUHBeudtjxWCkl0UwOpNK8WmdkKRM5xX+Wr8ONj6cUO1Smi47fd6emSveX3Etf+lIVL0LuvhOdrDZm/ooH0ifjO0e7mbHwSfoeWdqmeb5hnL1fMXni7onbePkU+7yE+m3eReh3Wr6VO3g9fekusx4m9gY7Mj2HjybZA0afIn2/1ovUdbI/uYc/SFPTo496DI/VyyqwergKeOwpGEcNPxcsEHYiFapdLHQrZwfL0DGtNpoNf3jUYO6KjgwyN4j/bbiUZ20eeqZ0Ozf+gc/ho7x1wYGoqeU0V8MJSBaTKPQ03SrQJTRMXfMbo2TWz66NGiqTZUaYX+N/HG1m5KhNP4k+R+SV0l2EnZl1z+2Ng+1iVYu+PR13kmjUCsNGQ3bMG40wbLlR0plN7XjRzaKng2mn6fgilsXSAXR8L/U0b/rfQfgQxyrx4aXg442ibjR9Yv7+ltdoNXtzOxh0Jydjzoiv9SCIp52oFXp6PpKWewJpwN0uwktCrMLXtQvUjZmqrtX54nM71Ou6auaHKk+2DZS+hPerykkfI3OeX3X6sDTxNLXwhydRuvP1RXjgpB+Ax+yfcg6TizY74tPoTx/emtadZqSZEWY0j/yEykOYPMOvlPTJxObodH7yFX7fmS0eTHf3HZzn+33/BlJwJvHpajyEPuFZ6rS09DGyAvWZ9NH1kJWTPiKkQwznPakW4vbR/x8ifxoYNb6flQEl7tr51TSVAFT4Zf6T3FreY1v3H7ogzouBByJ4ktUz+OPS5+6lIJUOvIr2xrpq+ZHCQIe7/1XW5D4BuWZatHOMH3pv6vEVEkpMHweKiHn9cNslCFfF3uhlX42TT8ttP7zpivvxRLbio5rvCZSO4eb2TI9fgXphCFbx8fc3hQiazh7vXaSrMxW77/t2QLj1GIP32PJTZjBzMygwdSErxNvSh2WvQ994XAVEBIv3phvFM2femj4yguRxSl7EWVEj/Dk73bc84C4GNl/jERIgIqeMMRPWtyduvhcoHzPqmo/57IaM3zNbTAV8ROleHtx61GBpPMTFlWHEHnZllM9gj6RrDnfuXzAzHTtCn8U+s8JL2SCc2zGIvNETo2rF75PeqwaB9TnsyXQkI04XHL2HPiaX0p1opQ8V7CCTfpg54MsT3EcfVwM+bDx6XdLq+/p9GZA3NeDyd6vYiHFzdFm8zeZqo/v+9InvRgzS2N9NN5BXOvKjEx9HHyUGtWJYMarcpPVlZrYL3fonLXm9g0hVGYNtkrT/cQ0HnDC8vAOBWvYI6W9I/b+1k2b/FOcvHQf3hzBmH2Rz9yH8F1KbQCImahlX2U40Gy5AU2ZjP62ILw6eyqzasHBIURMsste4s6PZMMiWofxU/uSnJ9wvmNe3tvTyFXyxqh5AzyBnP4tXfqQJe9ofJEOVX4+4dAEXN6W5htgjWa7fp4KmfDDq2QAd7bL15cfV5g8EYS6N8vrnlktfcimqLQGmTvYJIrJVaDQzyilbfmcDQWs7Ef/G55WMPj7Vg3+et5vwCe7iIxIk/33edBhDay4A7Bq701MuF33bdEbT5StsrEI9m+wuiZNV1Z3eN8CinX4e+v8V9zUhl3fVXf557W7cazn1dLaWoTlhW6yWE0Q+K30iwY3YWgLmRcvB4ZSYrp3UGCFpk/7fZX1RUJJNNlLrNbfd63RWnV57FPqyOTNa+iyMu3HaI6Essyaf28koCHoI8us0mArnQMvmZPxD7AWxHkpi9UruQkXfXajoq1ChQoUKFSpU+AxUft9dqOi7CxV9FSpUqFChQoUKn4HK77sLFX13oaLvZvwFDGGRwoyMLdEAAAAASUVORK5CYII=;" vertex="1" parent="7">
                    <mxGeometry x="420" y="270" width="318" height="159" as="geometry"/>
                </mxCell>
            </root>
        </mxGraphModel>
    </diagram>
</mxfile>